HIERARCHY
ROOT root
{
	OFFSET	0	13.1	24.9
	CHANNELS 6  Xposition Yposition Zposition Xrotation Yrotation Zrotation
	JOINT spine_1
	{
		OFFSET	0	9.99999	0
		CHANNELS 3  Xrotation Yrotation Zrotation
		JOINT spine_2
		{
			OFFSET	0	112	-10
			CHANNELS 3  Xrotation Yrotation Zrotation
			JOINT spine_3
			{
				OFFSET	0	206.5	19.3
				CHANNELS 3  Xrotation Yrotation Zrotation
				JOINT spine_4
				{
					OFFSET	0	110.4	14.6
					CHANNELS 3  Xrotation Yrotation Zrotation
					JOINT neck_1
					{
						OFFSET	0	71.8	-50.3
						CHANNELS 3  Xrotation Yrotation Zrotation
						JOINT neck_2
						{
							OFFSET	0	86.2	-25.8
							CHANNELS 3  Xrotation Yrotation Zrotation
							JOINT head_ee
							{
								OFFSET	0	179.8	-8.7
								CHANNELS 3  Xrotation Yrotation Zrotation
								End Site
								{
									OFFSET	1	0	0
								}
							}
						}
					}
					JOINT left_clavicle
					{
						OFFSET	-43.2	22.4	-70.8
						CHANNELS 3  Xrotation Yrotation Zrotation
						JOINT left_shoulder
						{
							OFFSET	-93.9	-5.79999	48.7
							CHANNELS 3  Xrotation Yrotation Zrotation
							JOINT left_elbow
							{
								OFFSET	-291.4	-30.8	15.2
								CHANNELS 3  Xrotation Yrotation Zrotation
								JOINT left_lowarm_twist
								{
									OFFSET	-110.7	-3.89999	13.6
									CHANNELS 3  Xrotation Yrotation Zrotation
									JOINT left_hand
									{
										OFFSET	-110.7	-3.89999	13.6
										CHANNELS 3  Xrotation Yrotation Zrotation
										JOINT left_ee
										{
											OFFSET	-80.8	-5.10001	12.1
											CHANNELS 3  Xrotation Yrotation Zrotation
											End Site
											{
												OFFSET	1	0	0
											}
										}
									}
								}
							}
						}
					}
					JOINT right_clavicle
					{
						OFFSET	43.2	22.4	-70.8
						CHANNELS 3  Xrotation Yrotation Zrotation
						JOINT right_shoulder
						{
							OFFSET	93.9	-5.79999	48.7
							CHANNELS 3  Xrotation Yrotation Zrotation
							JOINT right_elbow
							{
								OFFSET	291.4	-30.8	15.2
								CHANNELS 3  Xrotation Yrotation Zrotation
								JOINT right_lowarm_twist
								{
									OFFSET	110.7	-3.89999	13.6
									CHANNELS 3  Xrotation Yrotation Zrotation
									JOINT right_hand
									{
										OFFSET	110.7	-3.89999	13.6
										CHANNELS 3  Xrotation Yrotation Zrotation
										JOINT right_ee
										{
											OFFSET	80.8	-5.10001	12.1
											CHANNELS 3  Xrotation Yrotation Zrotation
											End Site
											{
												OFFSET	1	0	0
											}
										}
									}
								}
							}
						}
					}
				}
			}
		}
	}
	JOINT left_hip
	{
		OFFSET	-82.8	-127.5	0.300001
		CHANNELS 3  Xrotation Yrotation Zrotation
		JOINT left_knee
		{
			OFFSET	-28.2	-396.7	2.2
			CHANNELS 3  Xrotation Yrotation Zrotation
			JOINT left_ankle
			{
				OFFSET	-11.7	-411.3	35.4
				CHANNELS 3  Xrotation Yrotation Zrotation
				JOINT left_toes
				{
					OFFSET	0	-60	-88.6
					CHANNELS 3  Xrotation Yrotation Zrotation
					JOINT left_foot_ee
					{
						OFFSET	-22.5	-16.5	-42.2
						CHANNELS 3  Xrotation Yrotation Zrotation
						End Site
						{
							OFFSET	1	0	0
						}
					}
				}
			}
		}
	}
	JOINT right_hip
	{
		OFFSET	82.8	-127.5	0.300001
		CHANNELS 3  Xrotation Yrotation Zrotation
		JOINT right_knee
		{
			OFFSET	28.2	-396.7	2.2
			CHANNELS 3  Xrotation Yrotation Zrotation
			JOINT right_ankle
			{
				OFFSET	11.7	-411.3	35.4
				CHANNELS 3  Xrotation Yrotation Zrotation
				JOINT right_toes
				{
					OFFSET	0	-60	-88.6
					CHANNELS 3  Xrotation Yrotation Zrotation
					JOINT right_foot_ee
					{
						OFFSET	22.5	-16.5	-42.2
						CHANNELS 3  Xrotation Yrotation Zrotation
						End Site
						{
							OFFSET	1	0	0
						}
					}
				}
			}
		}
	}
}
MOTION
Frames: 7
Frame Time: 0.02
1372.05 701.618 -1475.22 14.5820676857 67.0564273206 -11.8737653396 -3.19729 -0.139709 -0.333337 -3.19724 -0.118215 -0.341551 -3.19643 -0.0237166 -0.360651 -3.1966 -0.0803768 -0.35238 -10.6414 4.4503 3.96407 -10.6116 5.75844 4.99405 -0.0 0.0 -0.0 8.61567 1.90347 16.7668 10.6758 -28.2037 43.1128 12.8121 -80.9724 10.9496 -43.0017 -3.2759 4.26781 -3.55293 -7.25948 -28.1722 -0.0 0.0 -0.0 9.30614 9.00877 -18.3388 -36.5569 25.86 -61.0735 0.405078 11.3467 -0.0402422 4.36 -0.133084 0.540875 0.732729 -21.6655 -13.0739 0.0 0.0 0.0 -23.7163 29.6368 1.50017 -2.61651 0.0988538 0.389346 30.3809 -32.0654 -4.98742 23.2121 -0.0 -0.0 -0.0 0.0 -0.0 28.7117 19.4902 -8.53214 -2.40927 -0.0916745 -0.35835 -16.9567 24.6933 -3.05001 -23.7364 0.0 0.0 0.0 0.0 0.0 
1278.96166282 692.506 -1503.24684936 19.2709598491 73.6584219932 -16.0202464904 -2.94418 -0.0804412 -0.620292 -2.94397 -0.0408082 -0.624153 -2.94325 0.122942 -0.613285 -2.94378 0.024544 -0.625004 -9.41715 2.90454 -0.791109 -9.42357 5.99606 -0.0788721 -0.0 0.0 -0.0 6.78491 2.37926 13.1623 7.6826 -26.0783 51.4851 10.0578 -78.5944 8.23839 -43.2637 -3.30475 4.28508 -3.15077 -2.79337 -22.9684 -0.0 0.0 -0.0 9.56264 7.23929 -18.9037 -32.0059 28.2125 -59.3327 0.350037 9.83737 -0.0301238 0.404945 -0.0140918 0.0497974 0.0296657 -29.2797 -11.6032 0.0 0.0 0.0 -24.2171 27.5156 -1.61336 -11.0313 0.294709 1.66467 25.5595 -22.1201 -3.86879 23.4348 -0.0 -0.0 -0.0 0.0 -0.0 28.7377 17.7294 -11.4994 -13.7379 -0.31767 -2.07929 -8.58369 18.5128 -1.43576 -24.0873 0.0 0.0 0.0 0.0 0.0 
1279.38829072 692.506 -1504.62663934 18.3584902527 72.852682998 -15.0673998148 -2.94418 -0.0804412 -0.620292 -2.94397 -0.0408082 -0.624153 -2.94325 0.122942 -0.613285 -2.94378 0.024544 -0.625004 -9.41715 2.90454 -0.791109 -9.42357 5.99606 -0.0788721 -0.0 0.0 -0.0 6.78491 2.37926 13.1623 7.6826 -26.0783 51.4851 10.0578 -78.5944 8.23839 -43.2637 -3.30475 4.28508 -3.15077 -2.79337 -22.9684 -0.0 0.0 -0.0 9.56264 7.23929 -18.9037 -32.0059 28.2125 -59.3327 0.350037 9.83737 -0.0301238 0.404945 -0.0140918 0.0497974 0.0296657 -29.2797 -11.6032 0.0 0.0 0.0 -24.2171 27.5156 -1.61336 -11.0313 0.294709 1.66467 25.5595 -22.1201 -3.86879 23.4348 -0.0 -0.0 -0.0 0.0 -0.0 28.7377 17.7294 -11.4994 -13.7379 -0.31767 -2.07929 -8.58369 18.5128 -1.43576 -24.0873 0.0 0.0 0.0 0.0 0.0 
1251.88351225 696.952 -1512.64730879 20.2708243228 73.5563434034 -16.7861295308 -2.89772 -0.150715 -0.807605 -2.89737 -0.0990211 -0.815558 -2.89546 0.115839 -0.813339 -2.89639 -0.0140624 -0.821426 -8.70487 2.80969 1.11042 -8.70563 4.48697 1.7351 -0.0 0.0 -0.0 5.5782 1.91868 10.8292 5.27392 -25.8094 53.2437 7.82006 -75.4828 6.05683 -43.4629 -3.32674 4.29812 -3.14009 -3.72806 -23.3528 -0.0 0.0 -0.0 9.36988 6.65685 -18.491 -30.7548 29.2006 -58.8123 0.425928 11.9144 -0.0444455 -0.717804 0.0258437 -0.088025 -0.131364 -28.8724 -10.5785 0.0 0.0 0.0 -23.6117 26.1132 -2.42546 -14.8573 0.321438 2.25099 20.2286 -17.892 -3.04288 28.6574 -0.0 -0.0 -0.0 0.0 -0.0 28.0915 18.2166 -11.9854 -15.803 -0.322005 -2.39609 -8.74426 18.4605 -1.46232 -22.7736 0.0 0.0 0.0 0.0 0.0 
1195.88636625 704.089 -1512.08730356 22.3750992794 76.0785647411 -19.4915503629 -2.46358 0.0757015 -0.831645 -2.46321 0.128466 -0.825143 -2.46476 0.332301 -0.766124 -2.46552 0.207139 -0.808987 -4.94497 2.4794 0.872118 -4.94066 3.9002 1.31588 -0.0 0.0 -0.0 4.26243 4.45859 8.40292 3.53553 -23.8535 61.0299 5.08011 -68.3033 3.4474 -43.3965 -3.31941 4.29379 -2.81882 -0.524301 -19.451 -0.0 0.0 -0.0 9.1292 6.56265 -17.978 -26.6654 30.513 -58.0773 0.436047 12.1891 -0.0465582 -2.46148 0.093206 -0.30047 -0.0838663 -27.1439 -10.224 0.0 0.0 0.0 -19.0443 17.9162 -2.83199 -26.5839 0.159679 4.03999 5.73317 -1.93986 -0.83915 39.386 -0.0 -0.0 -0.0 0.0 -0.0 25.1902 18.1554 -11.4061 -19.4051 -0.302243 -2.94831 2.03698 9.70603 0.311909 -23.8153 0.0 0.0 0.0 0.0 0.0 
1196.58198269 704.089 -1515.26745723 20.8874599292 75.1151267885 -17.9556963903 -2.46358 0.0757015 -0.831645 -2.46321 0.128466 -0.825143 -2.46476 0.332301 -0.766124 -2.46552 0.207139 -0.808987 -4.94497 2.4794 0.872118 -4.94066 3.9002 1.31588 -0.0 0.0 -0.0 4.26243 4.45859 8.40292 3.53553 -23.8535 61.0299 5.08011 -68.3033 3.4474 -43.3965 -3.31941 4.29379 -2.81882 -0.524301 -19.451 -0.0 0.0 -0.0 9.1292 6.56265 -17.978 -26.6654 30.513 -58.0773 0.436047 12.1891 -0.0465582 -2.46148 0.093206 -0.30047 -0.0838663 -27.1439 -10.224 0.0 0.0 0.0 -19.0443 17.9162 -2.83199 -26.5839 0.159679 4.03999 5.73317 -1.93986 -0.83915 39.386 -0.0 -0.0 -0.0 0.0 -0.0 25.1902 18.1554 -11.4061 -19.4051 -0.302243 -2.94831 2.03698 9.70603 0.311909 -23.8153 0.0 0.0 0.0 0.0 0.0 
1152.54559186 708.405 -1517.13709582 23.1451986239 77.6421345463 -20.3629910042 -2.18371 0.281417 -0.827892 -2.18339 0.333526 -0.808309 -2.18802 0.523131 -0.700674 -2.18847 0.405911 -0.774495 -3.32802 2.99066 1.85902 -3.31556 4.00423 2.37352 -0.0 0.0 -0.0 3.3131 6.45878 6.74274 0.94314 -22.3745 64.659 4.00575 -63.2361 2.46672 -42.6799 -3.24058 4.24642 -2.22788 2.33203 -13.9371 -0.0 0.0 -0.0 9.11635 3.89389 -17.9358 -20.4674 33.7238 -56.4143 0.411029 11.509 -0.0414212 -4.91089 0.198701 -0.59528 -0.0891797 -25.8855 -9.739 0.0 0.0 0.0 -13.4233 11.1248 -3.48541 -38.7565 -0.389555 5.82342 -10.2803 11.1525 1.5346 40.2322 -0.0 -0.0 -0.0 0.0 -0.0 22.662 17.2015 -12.0019 -20.6269 -0.287659 -3.13522 11.3645 -0.729353 1.61988 -22.527 0.0 0.0 0.0 0.0 0.0 
